<?xml version="1.0" encoding="UTF-8"?>
<svg width="1200pt" height="1200pt" version="1.1" viewBox="0 0 1200 1200" xmlns="http://www.w3.org/2000/svg">
 <path d="m1050 93.75h-308.02c-31.012 0-56.25 25.238-56.25 56.25v900c0 31.012 25.238 56.25 56.25 56.25h308.02c31.012 0 56.25-25.238 56.25-56.25v-900c0-31.012-25.238-56.25-56.25-56.25z" fill="#67351b"/>
 <path d="m150 1106.2h308.02c31.012 0 56.25-25.238 56.25-56.25v-900c0-31.012-25.238-56.25-56.25-56.25h-308.02c-31.012 0-56.25 25.238-56.25 56.25v900c0 31.012 25.238 56.25 56.25 56.25z" fill="#67351b"/>
</svg>
