<?xml version="1.0" encoding="UTF-8"?>
<svg width="1200pt" height="1200pt" version="1.1" viewBox="0 0 1200 1200" xmlns="http://www.w3.org/2000/svg">
 <path d="m512.44 400.69 289.31 159.56c30.938 15.562 30.938 63.938 0 79.5l-289.31 159.56c-28.688 17.062-68.438-6.375-67.312-39.75v-319.13c-1.125-33.375 38.812-57 67.312-39.75zm449.06-111.75h44.438c49.312-1.3125 49.5-73.688 0-75h-137.26c-20.625 0-37.5 16.875-37.5 37.5v137.26c1.3125 49.312 73.688 49.5 75 0v-48.562c221.63 257.26 33.562 663.19-306.19 661.87-221.63 0-402-180.37-402-402 0-221.63 180.37-402 402-402 20.625 0 37.5-16.875 37.5-37.5s-16.875-37.5-37.5-37.5c-263.06 0-477 213.94-477 477s213.94 477 477 477c404.81 1.5 627-483.37 361.5-788.06z" fill="#67351b"/>
</svg>
