<?xml version="1.0" encoding="UTF-8"?>
<svg width="1200pt" height="1200pt" version="1.1" viewBox="0 0 1200 1200" xmlns="http://www.w3.org/2000/svg">
 <path d="m470.14 839.66 394.99 255.75c12.375 7.2383 25.949 10.836 39.562 10.836 13.387 0 26.773-3.4883 39-10.5 15.711-9 26.887-22.836 33.637-38.852l-695.21-695.21c-37.648 6.4492-66.488 39.75-66.488 80.023v316.57c0 44.852 35.738 81.375 79.688 81.375z" fill="#67351b"/>
 <path d="m984.38 957.86v-782.66c0-29.812-15.188-56.324-40.688-70.988-24.602-14.137-54-14.023-79.273 0.78906l-394.28 255.3h-83.324l-261.04-261.07c-7.3125-7.3125-19.199-7.3125-26.512 0s-7.3125 19.199 0 26.512l975 975c3.6367 3.6758 8.4375 5.5117 13.238 5.5117s9.6016-1.8359 13.273-5.4766c7.3125-7.3125 7.3125-19.199 0-26.512z" fill="#67351b"/>
</svg>
