<?xml version="1.0" encoding="UTF-8"?>
<svg width="1200pt" height="1200pt" version="1.1" viewBox="0 0 1200 1200" xmlns="http://www.w3.org/2000/svg">
 <path d="m173.44 839.66h174.04l334.88 255.75c12.375 7.2383 25.949 10.836 39.562 10.836 13.387 0 26.773-3.4883 39-10.5 25.5-14.625 40.688-41.137 40.688-70.988v-849.52c0-29.812-15.188-56.324-40.688-70.988-24.602-14.176-54-14.023-80.477 1.6133l-332.96 254.47h-174.04c-43.949 0-79.688 36.523-79.688 81.375v316.57c0 44.852 35.738 81.379 79.688 81.379z" fill="#67351b"/>
 <path d="m854.62 885.45c3.5625 3.0742 7.9141 4.5742 12.262 4.5742 5.25 0 10.461-2.2109 14.176-6.4883 60.898-70.352 95.812-173.51 95.812-283.09 0-109.2-34.914-212.66-95.738-283.88-6.7109-7.8359-18.602-8.6992-26.398-2.1016-7.9141 6.75-8.8125 18.562-2.1016 26.438 55.125 64.539 86.738 159.15 86.738 259.54 0 100.69-31.574 194.93-86.664 258.56-6.75 7.8398-5.9219 19.652 1.9141 26.438z" fill="#67351b"/>
 <path d="m964.61 180.64c-6.7891-7.8359-18.637-8.7383-26.438-2.0234-7.875 6.75-8.7734 18.602-2.0625 26.438 84.301 98.211 132.64 242.18 132.64 394.95 0 152.51-48.113 296.48-132.04 394.99-6.7109 7.875-5.7383 19.727 2.1367 26.438 3.5234 3 7.8359 4.4609 12.148 4.4609 5.3242 0 10.574-2.25 14.289-6.6016 89.59-105.18 140.96-258 140.96-419.29 0-161.62-51.637-314.48-141.64-419.36z" fill="#67351b"/>
</svg>
